# xmcd CD database file
#
# Track frame offsets:
#	150
#	16502
#	35404
#	47631
#	60120
#	75610
#	100112
#	110939
#	125641
#	137268
#	155445
#	168472
#	185049
#	200876
#
# Disc length: 2918 seconds
#
# Revision: 0
# Processed by: cddbd v1.5.2PL0 Copyright (c) Steve Scherf et al.
# Submitted via: CDex 1.70beta2
#
DISCID=b50b640e
DTITLE=Willy Astor - The Sound of Islands Vol.1
DYEAR=2003
DGENRE=Jazz
TTITLE0=Pegasus
TTITLE1=Somnambul
TTITLE2=Mrs. Blue Sky
TTITLE3=Anuschka
TTITLE4=Höhenflug
TTITLE5=Nautilus
TTITLE6=The Sound Of Islands
TTITLE7=Ma Cherie
TTITLE8=Leicht Sinnig
TTITLE9=Lancelot
TTITLE10=Rifugio
TTITLE11=Panta Rhei
TTITLE12=Einklang
TTITLE13=El Cafe
EXTD=YEAR: 2003
EXTT0=
EXTT1=
EXTT2=
EXTT3=
EXTT4=
EXTT5=
EXTT6=
EXTT7=
EXTT8=
EXTT9=
EXTT10=
EXTT11=
EXTT12=
EXTT13=
PLAYORDER=
